<?xml version="1.0" encoding="UTF-8"?> <svg xmlns="http://www.w3.org/2000/svg" width="39" height="35" viewBox="0 0 39 35" fill="none"><path d="M34.7717 17.2666C34.5964 19.4133 33.9608 21.4971 32.9082 23.3762C31.8556 25.2554 30.4107 26.8858 28.6717 28.1566" stroke="white" stroke-width="1.5" stroke-miterlimit="10" stroke-linecap="round"></path><path d="M13.0817 2.45644C15.0263 1.53067 17.1475 1.03452 19.301 1.00174C21.4545 0.968953 23.5898 1.4003 25.5617 2.26644" stroke="white" stroke-width="1.5" stroke-miterlimit="10" stroke-linecap="round"></path><path d="M11.0817 28.6665C9.30829 27.442 7.81958 25.8498 6.7169 23.9982C5.61423 22.1466 4.92348 20.0791 4.69168 17.9365" stroke="white" stroke-width="1.5" stroke-miterlimit="10" stroke-linecap="round"></path><path d="M19.4917 27.9963C21.4965 27.9963 23.1217 26.3711 23.1217 24.3663C23.1217 22.3615 21.4965 20.7363 19.4917 20.7363C17.4869 20.7363 15.8617 22.3615 15.8617 24.3663C15.8617 26.3711 17.4869 27.9963 19.4917 27.9963Z" stroke="white" stroke-width="1.5" stroke-miterlimit="10" stroke-linecap="round"></path><path d="M19.4917 27.9961C18.1312 27.9953 16.8125 28.4662 15.7604 29.3287C14.7082 30.1912 13.9877 31.3919 13.7217 32.7261C13.7006 32.8629 13.7081 33.0026 13.7438 33.1364C13.7795 33.2701 13.8426 33.395 13.9291 33.5031C14.0156 33.6112 14.1236 33.7002 14.2462 33.7644C14.3689 33.8286 14.5035 33.8666 14.6417 33.8761H24.3417C24.478 33.864 24.6105 33.8241 24.7308 33.7588C24.8511 33.6934 24.9567 33.6041 25.0411 33.4963C25.1255 33.3885 25.1868 33.2645 25.2213 33.132C25.2558 32.9995 25.2627 32.8614 25.2417 32.7261C24.978 31.3944 24.2609 30.1952 23.2125 29.3328C22.1641 28.4704 20.8492 27.998 19.4917 27.9961V27.9961Z" stroke="white" stroke-width="1.5" stroke-miterlimit="10" stroke-linecap="round"></path><path d="M32.2017 8.43676C34.2064 8.43676 35.8317 6.81155 35.8317 4.80676C35.8317 2.80196 34.2064 1.17676 32.2017 1.17676C30.1969 1.17676 28.5717 2.80196 28.5717 4.80676C28.5717 6.81155 30.1969 8.43676 32.2017 8.43676Z" stroke="white" stroke-width="1.5" stroke-miterlimit="10" stroke-linecap="round"></path><path d="M32.2417 8.43652C30.8808 8.43995 29.5629 8.91371 28.5114 9.77756C27.4598 10.6414 26.7392 11.8422 26.4717 13.1765C26.4506 13.3133 26.4581 13.4531 26.4938 13.5868C26.5295 13.7206 26.5926 13.8455 26.6791 13.9536C26.7656 14.0617 26.8736 14.1506 26.9962 14.2148C27.1189 14.279 27.2535 14.3171 27.3917 14.3265H37.1017C37.2424 14.3256 37.3812 14.2931 37.5077 14.2313C37.6342 14.1696 37.7452 14.0802 37.8326 13.9698C37.9199 13.8595 37.9813 13.7309 38.0123 13.5936C38.0433 13.4562 38.0431 13.3137 38.0117 13.1765C37.7476 11.8405 37.028 10.6375 35.9757 9.77303C34.9233 8.90855 33.6035 8.43616 32.2417 8.43652V8.43652Z" stroke="white" stroke-width="1.5" stroke-miterlimit="10" stroke-linecap="round"></path><path d="M6.78167 8.43676C8.78647 8.43676 10.4117 6.81155 10.4117 4.80676C10.4117 2.80196 8.78647 1.17676 6.78167 1.17676C4.77688 1.17676 3.15167 2.80196 3.15167 4.80676C3.15167 6.81155 4.77688 8.43676 6.78167 8.43676Z" stroke="white" stroke-width="1.5" stroke-miterlimit="10" stroke-linecap="round"></path><path d="M6.78167 8.43652C5.41979 8.43616 4.1 8.90855 3.04767 9.77303C1.99533 10.6375 1.27571 11.8405 1.01167 13.1765C0.990582 13.3133 0.998132 13.4531 1.03384 13.5868C1.06955 13.7206 1.13265 13.8455 1.21913 13.9536C1.30561 14.0617 1.4136 14.1506 1.53625 14.2148C1.65891 14.279 1.79356 14.3171 1.93167 14.3265H11.6317C11.7698 14.3171 11.9044 14.279 12.0271 14.2148C12.1497 14.1506 12.2577 14.0617 12.3442 13.9536C12.4307 13.8455 12.4938 13.7206 12.5295 13.5868C12.5652 13.4531 12.5728 13.3133 12.5517 13.1765C12.2876 11.8405 11.568 10.6375 10.5157 9.77303C9.46334 8.90855 8.14356 8.43616 6.78167 8.43652V8.43652Z" stroke="white" stroke-width="1.5" stroke-miterlimit="10" stroke-linecap="round"></path></svg> 