<?xml version="1.0" encoding="UTF-8"?> <svg xmlns="http://www.w3.org/2000/svg" width="42" height="37" viewBox="0 0 42 37" fill="none"><path d="M4.49 21.98C6.41747 21.98 7.98 20.4175 7.98 18.49C7.98 16.5625 6.41747 15 4.49 15C2.56253 15 1 16.5625 1 18.49C1 20.4175 2.56253 21.98 4.49 21.98Z" stroke="white" stroke-width="1.5" stroke-miterlimit="10" stroke-linecap="round"></path><path d="M20.65 21.98C22.5775 21.98 24.14 20.4175 24.14 18.49C24.14 16.5625 22.5775 15 20.65 15C18.7225 15 17.16 16.5625 17.16 18.49C17.16 20.4175 18.7225 21.98 20.65 21.98Z" stroke="white" stroke-width="1.5" stroke-miterlimit="10" stroke-linecap="round"></path><path d="M10.61 7.39014L6.14999 15.1101" stroke="white" stroke-width="1.5" stroke-miterlimit="10" stroke-linecap="round"></path><path d="M7.98001 18.4902H17.16" stroke="white" stroke-width="1.5" stroke-miterlimit="10" stroke-linecap="round"></path><path d="M12.57 35.98C14.4975 35.98 16.06 34.4175 16.06 32.49C16.06 30.5625 14.4975 29 12.57 29C10.6425 29 9.07999 30.5625 9.07999 32.49C9.07999 34.4175 10.6425 35.98 12.57 35.98Z" stroke="white" stroke-width="1.5" stroke-miterlimit="10" stroke-linecap="round"></path><path d="M6.01999 21.6401L10.48 29.3601" stroke="white" stroke-width="1.5" stroke-miterlimit="10" stroke-linecap="round"></path><path d="M14.31 29.4598L18.9 21.5098" stroke="white" stroke-width="1.5" stroke-miterlimit="10" stroke-linecap="round"></path><path d="M28.73 35.98C30.6575 35.98 32.22 34.4175 32.22 32.49C32.22 30.5625 30.6575 29 28.73 29C26.8025 29 25.24 30.5625 25.24 32.49C25.24 34.4175 26.8025 35.98 28.73 35.98Z" stroke="white" stroke-width="1.5" stroke-miterlimit="10" stroke-linecap="round"></path><path d="M16.06 32.7402H24.98" stroke="white" stroke-width="1.5" stroke-miterlimit="10" stroke-linecap="round"></path><path d="M26.98 29.47L22.39 21.52" stroke="white" stroke-width="1.5" stroke-miterlimit="10" stroke-linecap="round"></path><path d="M36.82 21.9898C38.7475 21.9898 40.31 20.4272 40.31 18.4998C40.31 16.5723 38.7475 15.0098 36.82 15.0098C34.8925 15.0098 33.33 16.5723 33.33 18.4998C33.33 20.4272 34.8925 21.9898 36.82 21.9898Z" stroke="white" stroke-width="1.5" stroke-miterlimit="10" stroke-linecap="round"></path><path d="M30.7 29.5901L35.16 21.8701" stroke="white" stroke-width="1.5" stroke-miterlimit="10" stroke-linecap="round"></path><path d="M33.33 18.5H24.15" stroke="white" stroke-width="1.5" stroke-miterlimit="10" stroke-linecap="round"></path><path d="M28.74 7.98977C30.6675 7.98977 32.23 6.42724 32.23 4.49977C32.23 2.57229 30.6675 1.00977 28.74 1.00977C26.8125 1.00977 25.25 2.57229 25.25 4.49977C25.25 6.42724 26.8125 7.98977 28.74 7.98977Z" stroke="white" stroke-width="1.5" stroke-miterlimit="10" stroke-linecap="round"></path><path d="M35.29 15.3501L30.83 7.62012" stroke="white" stroke-width="1.5" stroke-miterlimit="10" stroke-linecap="round"></path><path d="M27 7.52002L22.41 15.47" stroke="white" stroke-width="1.5" stroke-miterlimit="10" stroke-linecap="round"></path><path d="M12.58 7.98C14.5075 7.98 16.07 6.41747 16.07 4.49C16.07 2.56253 14.5075 1 12.58 1C10.6525 1 9.09 2.56253 9.09 4.49C9.09 6.41747 10.6525 7.98 12.58 7.98Z" stroke="white" stroke-width="1.5" stroke-miterlimit="10" stroke-linecap="round"></path><path d="M25.25 4.24023H16.33" stroke="white" stroke-width="1.5" stroke-miterlimit="10" stroke-linecap="round"></path><path d="M14.32 7.52002L18.91 15.47" stroke="white" stroke-width="1.5" stroke-miterlimit="10" stroke-linecap="round"></path></svg> 