<?xml version="1.0" encoding="UTF-8"?> <svg xmlns="http://www.w3.org/2000/svg" width="38" height="38" viewBox="0 0 38 38" fill="none"><path d="M34.42 16.65C34.5942 17.6405 34.6812 18.6444 34.68 19.65C34.676 22.9798 33.685 26.2337 31.8322 29.0004C29.9794 31.7671 27.348 33.9224 24.2705 35.1939C21.1931 36.4654 17.8078 36.7961 14.5424 36.144C11.2771 35.492 8.27838 33.8866 5.92526 31.5306C3.57215 29.1747 1.97028 26.1741 1.32212 22.908C0.673968 19.6419 1.00862 16.257 2.28379 13.181C3.55895 10.1051 5.71739 7.47623 8.48628 5.62671C11.2552 3.77719 14.5102 2.79004 17.84 2.79004C19.0124 2.79289 20.1816 2.9135 21.33 3.15004" stroke="white" stroke-width="1.5" stroke-miterlimit="10" stroke-linecap="round"></path><path d="M36.83 7.82C36.83 8.68 35.7 9.31 35.39 10.05C35.08 10.79 35.39 12.05 34.83 12.65C34.27 13.25 33.01 12.88 32.24 13.2C31.47 13.52 30.86 14.64 30.01 14.64C29.16 14.64 28.52 13.51 27.78 13.25C27.04 12.99 25.78 13.25 25.18 12.7C24.58 12.15 24.95 10.87 24.63 10.1C24.31 9.33 23.19 8.73 23.19 7.87C23.19 7.01 24.32 6.39 24.63 5.64C24.94 4.89 24.63 3.64 25.18 3.05C25.73 2.46 27.01 2.81 27.78 2.49C28.55 2.17 29.15 1 30.01 1C30.87 1 31.49 2.13 32.25 2.44C33.01 2.75 34.25 2.44 34.84 3C35.43 3.56 35.08 4.82 35.4 5.59C35.72 6.36 36.83 6.96 36.83 7.82Z" stroke="white" stroke-width="1.5" stroke-miterlimit="10" stroke-linecap="round"></path><path d="M17.84 20.41C20.0988 20.41 21.93 18.5788 21.93 16.32C21.93 14.0611 20.0988 12.23 17.84 12.23C15.5812 12.23 13.75 14.0611 13.75 16.32C13.75 18.5788 15.5812 20.41 17.84 20.41Z" stroke="white" stroke-width="1.5" stroke-miterlimit="10" stroke-linecap="round"></path><path d="M17.84 20.4102C16.307 20.4086 14.8209 20.9391 13.6355 21.9111C12.4501 22.8832 11.6387 24.2365 11.34 25.7402C11.3079 25.8921 11.3093 26.0492 11.3441 26.2006C11.3788 26.352 11.4461 26.494 11.5413 26.6167C11.6364 26.7395 11.7571 26.8401 11.8951 26.9114C12.033 26.9828 12.1848 27.0234 12.34 27.0302H23.3C23.4552 27.0234 23.607 26.9828 23.7449 26.9114C23.8828 26.8401 24.0036 26.7395 24.0987 26.6167C24.1939 26.494 24.2612 26.352 24.2959 26.2006C24.3307 26.0492 24.3321 25.8921 24.3 25.7402C24.0009 24.2441 23.1949 22.897 22.0181 21.926C20.8413 20.9551 19.3656 20.4197 17.84 20.4102V20.4102Z" stroke="white" stroke-width="1.5" stroke-miterlimit="10" stroke-linecap="round"></path><path d="M30.01 9.2399C30.7942 9.2399 31.43 8.60415 31.43 7.8199C31.43 7.03566 30.7942 6.3999 30.01 6.3999C29.2258 6.3999 28.59 7.03566 28.59 7.8199C28.59 8.60415 29.2258 9.2399 30.01 9.2399Z" stroke="white" stroke-width="1.5" stroke-miterlimit="10" stroke-linecap="round"></path></svg> 