<?xml version="1.0" encoding="UTF-8"?> <svg xmlns="http://www.w3.org/2000/svg" width="44" height="33" viewBox="0 0 44 33" fill="none"><g clip-path="url(#clip0_1500_177)"><path d="M0.75 1.12988L9.39 5.35988C10.0414 5.67578 10.756 5.83989 11.48 5.83989C12.204 5.83989 12.9186 5.67578 13.57 5.35988L18.3 3.14988C19.1257 2.76744 20.0661 2.7138 20.93 2.99988L22.8 3.59988" stroke="white" stroke-width="1.5" stroke-miterlimit="10" stroke-linecap="round"></path><path d="M43.22 0.75L37.63 4.09C36.99 4.47485 36.274 4.71618 35.5316 4.79733C34.7892 4.87848 34.0381 4.7975 33.33 4.56L27.09 2.46C26.5318 2.27767 25.9362 2.24169 25.3601 2.3555C24.7841 2.46931 24.2469 2.7291 23.8 3.11L21 5.5C20.102 6.2663 19.5123 7.33213 19.34 8.5L18.65 13.07C18.5928 13.3249 18.6131 13.591 18.7083 13.8342C18.8035 14.0775 18.9693 14.2867 19.1842 14.435C19.3992 14.5833 19.6536 14.664 19.9148 14.6667C20.176 14.6694 20.432 14.5939 20.65 14.45L21.39 13.97C21.9833 13.5819 22.4712 13.0528 22.81 12.43L24.02 10.18C24.2227 9.79449 24.5017 9.45425 24.84 9.18L26.36 8" stroke="white" stroke-width="1.5" stroke-miterlimit="10" stroke-linecap="round"></path><path d="M25.82 10.5195L26.18 12.1395C26.2717 12.5378 26.45 12.911 26.7024 13.2325C26.9548 13.554 27.2749 13.8159 27.64 13.9995L38.21 19.2395C38.6472 19.4744 38.9814 19.8635 39.1477 20.331C39.3141 20.7986 39.3006 21.3113 39.11 21.7695L38.84 22.3995C38.6293 22.9248 38.2276 23.3509 37.7155 23.592C37.2035 23.8332 36.6192 23.8716 36.08 23.6995L27.17 20.6995" stroke="white" stroke-width="1.5" stroke-miterlimit="10" stroke-linecap="round"></path><path d="M24.47 24.7296L32.69 26.8296C33.2562 26.9671 33.8528 26.9 34.3744 26.6401C34.8959 26.3803 35.3088 25.9444 35.54 25.4096L36.27 23.8096" stroke="white" stroke-width="1.5" stroke-miterlimit="10" stroke-linecap="round"></path><path d="M22.8 27.8296L28.16 28.9996C28.6327 29.0978 29.1233 29.066 29.5793 28.9075C30.0354 28.749 30.44 28.4698 30.75 28.0996L32 26.6396" stroke="white" stroke-width="1.5" stroke-miterlimit="10" stroke-linecap="round"></path><path d="M18.81 30.16L23.01 31.16C23.4549 31.2566 23.918 31.2273 24.3472 31.0754C24.7765 30.9235 25.1549 30.655 25.44 30.3L26.75 28.71" stroke="white" stroke-width="1.5" stroke-miterlimit="10" stroke-linecap="round"></path><path d="M43.22 16.2402L36.72 18.5402" stroke="white" stroke-width="1.5" stroke-miterlimit="10" stroke-linecap="round"></path><path d="M0.75 16.2402L7.16 18.5402" stroke="white" stroke-width="1.5" stroke-miterlimit="10" stroke-linecap="round"></path><path d="M6.44999 22.8303C6.24819 22.6602 6.08206 22.4518 5.96118 22.2172C5.8403 21.9825 5.76706 21.7263 5.74568 21.4632C5.7243 21.2001 5.7552 20.9354 5.83661 20.6843C5.91801 20.4333 6.04831 20.2008 6.21999 20.0003L7.50999 18.3803C7.66316 18.1817 7.8557 18.017 8.07555 17.8963C8.2954 17.7757 8.53781 17.7018 8.78757 17.6792C9.03733 17.6567 9.28905 17.686 9.52694 17.7654C9.76483 17.8447 9.98376 17.9724 10.17 18.1403C10.3762 18.3107 10.5462 18.5208 10.6698 18.7581C10.7934 18.9954 10.8681 19.255 10.8895 19.5217C10.911 19.7884 10.8787 20.0566 10.7946 20.3106C10.7105 20.5646 10.5763 20.7991 10.4 21.0003L9.10999 22.5803C8.95668 22.7784 8.76434 22.9428 8.54489 23.0635C8.32544 23.1842 8.08355 23.2586 7.8342 23.282C7.58484 23.3055 7.33333 23.2775 7.09524 23.1998C6.85714 23.1221 6.63753 22.9963 6.44999 22.8303Z" stroke="white" stroke-width="1.5" stroke-miterlimit="10" stroke-linecap="round"></path><path d="M9.29999 25.5498C8.89536 25.1816 8.64477 24.674 8.59841 24.1289C8.55206 23.5837 8.71335 23.0411 9.04999 22.6098L10.59 20.6898C10.7519 20.4821 10.9547 20.3096 11.1858 20.1832C11.4169 20.0567 11.6715 19.9789 11.9338 19.9546C12.1961 19.9302 12.4606 19.9598 12.7111 20.0415C12.9615 20.1233 13.1926 20.2554 13.39 20.4298V20.4298C13.7952 20.7982 14.0454 21.3067 14.09 21.8525C14.1345 22.3983 13.9701 22.9407 13.63 23.3698L12.09 25.2898C11.9299 25.4986 11.7283 25.672 11.4981 25.7992C11.2678 25.9264 11.0137 26.0046 10.7518 26.029C10.4898 26.0535 10.2257 26.0235 9.97584 25.941C9.72602 25.8586 9.49593 25.7254 9.29999 25.5498V25.5498Z" stroke="white" stroke-width="1.5" stroke-miterlimit="10" stroke-linecap="round"></path><path d="M12.21 28.3403C11.8092 27.968 11.5646 27.4574 11.5256 26.9117C11.4866 26.366 11.6562 25.8258 12 25.4003L13.78 23.1703C13.9419 22.9625 14.1447 22.7901 14.3758 22.6636C14.6069 22.5372 14.8615 22.4594 15.1238 22.435C15.3861 22.4107 15.6506 22.4403 15.9011 22.522C16.1515 22.6037 16.3826 22.7359 16.58 22.9103C16.9852 23.2786 17.2354 23.7871 17.28 24.333C17.3245 24.8788 17.1601 25.4211 16.82 25.8503L15 28.0803C14.8381 28.2866 14.6358 28.4577 14.4056 28.5832C14.1754 28.7087 13.922 28.786 13.6609 28.8103C13.3998 28.8346 13.1365 28.8055 12.8871 28.7247C12.6376 28.6439 12.4072 28.5131 12.21 28.3403V28.3403Z" stroke="white" stroke-width="1.5" stroke-miterlimit="10" stroke-linecap="round"></path><path d="M15.27 31.0002C14.8673 30.6402 14.6156 30.1411 14.5656 29.6032C14.5155 29.0654 14.6707 28.5284 15 28.1002L17.24 25.3002C17.3971 25.084 17.5978 24.9031 17.8292 24.7693C18.0606 24.6354 18.3175 24.5517 18.5833 24.5234C18.8491 24.4951 19.1179 24.523 19.3723 24.6051C19.6266 24.6872 19.8609 24.8218 20.06 25.0002V25.0002C20.4816 25.3708 20.7432 25.8904 20.7898 26.4498C20.8364 27.0092 20.6645 27.5649 20.31 28.0002L18.07 30.8002C17.9037 31.0037 17.6975 31.1711 17.4642 31.2921C17.2309 31.4132 16.9753 31.4852 16.7131 31.504C16.451 31.5227 16.1877 31.4877 15.9396 31.401C15.6914 31.3144 15.4636 31.178 15.27 31.0002V31.0002Z" stroke="white" stroke-width="1.5" stroke-miterlimit="10" stroke-linecap="round"></path></g><defs><clipPath id="clip0_1500_177"><rect width="43.97" height="32.27" fill="white"></rect></clipPath></defs></svg> 