<?xml version="1.0" encoding="UTF-8"?> <svg xmlns="http://www.w3.org/2000/svg" width="40" height="34" viewBox="0 0 40 34" fill="none"><path d="M8.99 33.0728C13.4028 33.0728 16.98 29.4955 16.98 25.0828C16.98 20.67 13.4028 17.0928 8.99 17.0928C4.57724 17.0928 1 20.67 1 25.0828C1 29.4955 4.57724 33.0728 8.99 33.0728Z" stroke="white" stroke-width="1.5" stroke-miterlimit="10" stroke-linecap="round"></path><path d="M8.99 30.0128C11.7128 30.0128 13.92 27.8056 13.92 25.0828C13.92 22.3601 11.7128 20.1528 8.99 20.1528C6.26723 20.1528 4.06 22.3601 4.06 25.0828C4.06 27.8056 6.26723 30.0128 8.99 30.0128Z" stroke="white" stroke-width="1.5" stroke-miterlimit="10" stroke-linecap="round"></path><path d="M30.27 30.0128C32.9928 30.0128 35.2 27.8056 35.2 25.0828C35.2 22.3601 32.9928 20.1528 30.27 20.1528C27.5472 20.1528 25.34 22.3601 25.34 25.0828C25.34 27.8056 27.5472 30.0128 30.27 30.0128Z" stroke="white" stroke-width="1.5" stroke-miterlimit="10" stroke-linecap="round"></path><path d="M9.16 3.18291C9.60405 2.36962 10.3063 1.7274 11.156 1.35763C12.0056 0.98787 12.9542 0.91163 13.852 1.14095C14.7498 1.37027 15.5456 1.89209 16.1139 2.62402C16.6821 3.35595 16.9904 4.25629 16.99 5.18291" stroke="white" stroke-width="1.5" stroke-miterlimit="10" stroke-linecap="round"></path><path d="M1.44 22.4826L9.16 3.18262" stroke="white" stroke-width="1.5" stroke-miterlimit="10" stroke-linecap="round"></path><path d="M16.99 24.6926V4.68262" stroke="white" stroke-width="1.5" stroke-miterlimit="10" stroke-linecap="round"></path><path d="M30.27 33.0728C34.6828 33.0728 38.26 29.4955 38.26 25.0828C38.26 20.67 34.6828 17.0928 30.27 17.0928C25.8572 17.0928 22.28 20.67 22.28 25.0828C22.28 29.4955 25.8572 33.0728 30.27 33.0728Z" stroke="white" stroke-width="1.5" stroke-miterlimit="10" stroke-linecap="round"></path><path d="M30.1 3.18275C29.659 2.36646 28.9578 1.72101 28.1079 1.34902C27.2579 0.977029 26.308 0.89984 25.4092 1.12973C24.5103 1.35961 23.7141 1.88338 23.1471 2.61776C22.5801 3.35213 22.2749 4.25497 22.28 5.18274" stroke="white" stroke-width="1.5" stroke-miterlimit="10" stroke-linecap="round"></path><path d="M37.83 22.4826L30.1 3.18262" stroke="white" stroke-width="1.5" stroke-miterlimit="10" stroke-linecap="round"></path><path d="M22.28 24.6926V4.68262" stroke="white" stroke-width="1.5" stroke-miterlimit="10" stroke-linecap="round"></path><path d="M22.28 15.9028H16.99" stroke="white" stroke-width="1.5" stroke-miterlimit="10" stroke-linecap="round"></path><path d="M22.28 9.1626H16.99" stroke="white" stroke-width="1.5" stroke-miterlimit="10" stroke-linecap="round"></path></svg> 