<?xml version="1.0" encoding="UTF-8"?> <svg xmlns="http://www.w3.org/2000/svg" width="38" height="36" viewBox="0 0 38 36" fill="none"><path d="M16.7236 1.12643C13.0059 1.54416 9.51609 3.12915 6.75526 5.65385C3.99444 8.17855 2.10458 11.5131 1.357 15.1788C0.609417 18.8445 1.04256 22.6528 2.59425 26.057C4.14594 29.4612 6.73637 32.2862 9.99365 34.1264C10.1763 34.2279 10.3781 34.2903 10.5861 34.3098C10.7941 34.3293 11.004 34.3054 11.2023 34.2396C11.4006 34.1738 11.5831 34.0675 11.7383 33.9276C11.8934 33.7876 12.0178 33.617 12.1037 33.4264L15.0336 26.9564C15.1519 26.6931 15.1705 26.3958 15.0859 26.1199C15.0012 25.8439 14.8192 25.6081 14.5736 25.4564C13.1144 24.5481 11.9908 23.1892 11.3727 21.5854C10.7547 19.9816 10.6758 18.22 11.1482 16.5674C11.6205 14.9148 12.6183 13.461 13.9905 12.426C15.3628 11.391 17.0348 10.8311 18.7536 10.8311C20.4725 10.8311 22.1445 11.391 23.5168 12.426C24.889 13.461 25.8868 14.9148 26.3591 16.5674C26.8315 18.22 26.7526 19.9816 26.1346 21.5854C25.5165 23.1892 24.3929 24.5481 22.9336 25.4564C22.6864 25.6066 22.5022 25.8417 22.4157 26.1178C22.3292 26.3939 22.3463 26.692 22.4636 26.9564L25.3937 33.4264C25.4805 33.6173 25.6059 33.7881 25.762 33.9281C25.9181 34.0682 26.1014 34.1744 26.3005 34.2402C26.4996 34.3059 26.7102 34.3297 26.919 34.3102C27.1278 34.2906 27.3302 34.228 27.5136 34.1264C31.0824 32.1187 33.8447 28.9358 35.3299 25.1199C36.815 21.304 36.9312 17.0912 35.6587 13.1992C34.3861 9.30727 31.8035 5.97691 28.3509 3.77553C24.8982 1.57415 20.7891 0.637951 16.7236 1.12643V1.12643Z" stroke="white" stroke-width="1.5" stroke-miterlimit="10" stroke-linecap="round"></path></svg> 