<?xml version="1.0" encoding="UTF-8"?> <svg xmlns="http://www.w3.org/2000/svg" width="37" height="37" viewBox="0 0 37 37" fill="none"><path d="M11.5 35.8901H3C2.46957 35.8901 1.96086 35.6794 1.58579 35.3044C1.21071 34.9293 1 34.4206 1 33.8901V25.3901" stroke="white" stroke-width="1.5" stroke-miterlimit="10" stroke-linecap="round"></path><path d="M36 25.3501V33.8501C36 34.3805 35.7893 34.8892 35.4142 35.2643C35.0391 35.6394 34.5304 35.8501 34 35.8501H25.5" stroke="white" stroke-width="1.5" stroke-miterlimit="10" stroke-linecap="round"></path><path d="M25.5 1H34C34.5304 1 35.0391 1.21071 35.4142 1.58579C35.7893 1.96086 36 2.46957 36 3V11.5" stroke="white" stroke-width="1.5" stroke-miterlimit="10" stroke-linecap="round"></path><path d="M1 11.54V3.04004C1 2.50961 1.21071 2.0009 1.58579 1.62583C1.96086 1.25075 2.46957 1.04004 3 1.04004H11.5" stroke="white" stroke-width="1.5" stroke-miterlimit="10" stroke-linecap="round"></path><path d="M33.15 16.7202H3.85001" stroke="white" stroke-width="1.5" stroke-miterlimit="10" stroke-linecap="round"></path><path d="M33.15 20.1899H3.85001" stroke="white" stroke-width="1.5" stroke-miterlimit="10" stroke-linecap="round"></path></svg> 