<?xml version="1.0" encoding="UTF-8"?> <svg xmlns="http://www.w3.org/2000/svg" width="33" height="40" viewBox="0 0 33 40" fill="none"><path d="M20.25 14.8702C20.2478 14.2369 20.0836 13.6148 19.773 13.063C19.4624 12.5112 19.0157 12.0481 18.4755 11.7177C17.9353 11.3874 17.3195 11.2008 16.6867 11.1758C16.054 11.1507 15.4254 11.288 14.8607 11.5747C14.2961 11.8613 13.8142 12.2877 13.461 12.8132C13.1077 13.3387 12.8948 13.9459 12.8426 14.577C12.7904 15.2081 12.9006 15.842 13.1627 16.4185C13.4248 16.9949 13.8301 17.4947 14.34 17.8702C14.4776 17.9763 14.5889 18.1126 14.6652 18.2687C14.7415 18.4248 14.7808 18.5964 14.78 18.7702V24.9402C14.78 25.1895 14.879 25.4286 15.0553 25.6048C15.2316 25.7811 15.4707 25.8802 15.72 25.8802H17.37C17.6193 25.8802 17.8584 25.7811 18.0347 25.6048C18.211 25.4286 18.31 25.1895 18.31 24.9402V18.7302C18.3069 18.556 18.3451 18.3836 18.4216 18.2272C18.4981 18.0707 18.6106 17.9346 18.75 17.8302C19.2121 17.4865 19.588 17.0403 19.8483 16.5267C20.1086 16.013 20.2461 15.446 20.25 14.8702Z" stroke="white" stroke-width="1.5" stroke-miterlimit="10" stroke-linecap="round"></path><path d="M16.5 1H10.86C10.5957 1.00048 10.3376 1.0797 10.1185 1.22753C9.89942 1.37536 9.72936 1.5851 9.63 1.83C8.46 4.77 6.14 5.31 2.25 5.81C1.90449 5.86228 1.58891 6.03594 1.35984 6.29983C1.13077 6.56371 1.0032 6.90057 1 7.25V22.13C1 34.91 16.5 38.56 16.5 38.56" stroke="white" stroke-width="1.5" stroke-miterlimit="10" stroke-linecap="round"></path><path d="M16.5 1H22.14C22.4043 1.00048 22.6624 1.0797 22.8815 1.22753C23.1006 1.37536 23.2706 1.5851 23.37 1.83C24.54 4.77 26.86 5.31 30.72 5.83C31.0676 5.87519 31.3877 6.04313 31.6224 6.3035C31.8571 6.56388 31.991 6.89957 32 7.25V22.13C32 34.91 16.5 38.56 16.5 38.56" stroke="white" stroke-width="1.5" stroke-miterlimit="10" stroke-linecap="round"></path></svg> 