<?xml version="1.0" encoding="UTF-8"?> <svg xmlns="http://www.w3.org/2000/svg" width="38" height="37" viewBox="0 0 38 37" fill="none"><path d="M18.4455 2.10289C18.4445 1.95098 18.4123 1.80089 18.351 1.66191C18.2897 1.52293 18.2005 1.39801 18.0889 1.29489C17.9774 1.19178 17.8459 1.11266 17.7025 1.06243C17.5591 1.0122 17.407 0.991937 17.2555 1.00289C12.8401 1.32005 8.70867 3.29784 5.69269 6.53824C2.6767 9.77863 1 14.0411 1 18.4679C1 22.8947 2.6767 27.1571 5.69269 30.3975C8.70867 33.6379 12.8401 35.6157 17.2555 35.9329C17.407 35.9438 17.5591 35.9236 17.7025 35.8733C17.8459 35.8231 17.9774 35.744 18.0889 35.6409C18.2005 35.5378 18.2897 35.4129 18.351 35.2739C18.4123 35.1349 18.4445 34.9848 18.4455 34.8329V2.10289Z" stroke="white" stroke-width="1.5" stroke-miterlimit="10" stroke-linecap="round"></path><path d="M20.3255 35.9227C24.7933 35.6835 28.9993 33.7402 32.0773 30.493C35.1553 27.2458 36.8709 22.9419 36.8709 18.4677C36.8709 13.9935 35.1553 9.68963 32.0773 6.44242C28.9993 3.19521 24.7933 1.2519 20.3255 1.0127" stroke="white" stroke-width="1.5" stroke-miterlimit="10" stroke-linecap="round"></path><path d="M20.3255 31.6629C23.7188 31.5011 26.9196 30.0393 29.2638 27.5806C31.6081 25.1219 32.9159 21.8551 32.9159 18.4579C32.9159 15.0608 31.6081 11.794 29.2638 9.33528C26.9196 6.87659 23.7188 5.41471 20.3255 5.25293" stroke="white" stroke-width="1.5" stroke-miterlimit="10" stroke-linecap="round"></path><path d="M20.3255 27.1727C22.4815 26.9532 24.4794 25.9414 25.9322 24.3332C27.3849 22.725 28.1892 20.6349 28.1892 18.4677C28.1892 16.3005 27.3849 14.2104 25.9322 12.6022C24.4794 10.994 22.4815 9.98221 20.3255 9.7627" stroke="white" stroke-width="1.5" stroke-miterlimit="10" stroke-linecap="round"></path></svg> 