<?xml version="1.0" encoding="UTF-8"?> <svg xmlns="http://www.w3.org/2000/svg" width="40" height="37" viewBox="0 0 40 37" fill="none"><g clip-path="url(#clip0_1484_160)"><path d="M22.37 24.19V33.56C22.37 34.1408 22.1393 34.6979 21.7286 35.1086C21.3179 35.5193 20.7608 35.75 20.18 35.75H2.94C2.35918 35.75 1.80214 35.5193 1.39144 35.1086C0.980731 34.6979 0.75 34.1408 0.75 33.56V2.94C0.75 2.35918 0.980731 1.80214 1.39144 1.39144C1.80214 0.980731 2.35918 0.75 2.94 0.75H20.18C20.7608 0.75 21.3179 0.980731 21.7286 1.39144C22.1393 1.80214 22.37 2.35918 22.37 2.94V4.1" stroke="white" stroke-width="1.5" stroke-miterlimit="10" stroke-linecap="round"></path><path d="M36.78 4.1001H21.07C19.8605 4.1001 18.88 5.08059 18.88 6.2901V22.0001C18.88 23.2096 19.8605 24.1901 21.07 24.1901H36.78C37.9895 24.1901 38.97 23.2096 38.97 22.0001V6.2901C38.97 5.08059 37.9895 4.1001 36.78 4.1001Z" stroke="white" stroke-width="1.5" stroke-miterlimit="10" stroke-linecap="round"></path><path d="M35.36 16.75H32.93C32.2507 16.75 31.7 17.3007 31.7 17.98V20.41C31.7 21.0893 32.2507 21.64 32.93 21.64H35.36C36.0393 21.64 36.59 21.0893 36.59 20.41V17.98C36.59 17.3007 36.0393 16.75 35.36 16.75Z" stroke="white" stroke-width="1.5" stroke-miterlimit="10" stroke-linecap="round"></path><path d="M25.07 6.45996H22.64C21.9607 6.45996 21.41 7.01065 21.41 7.68996V10.12C21.41 10.7993 21.9607 11.35 22.64 11.35H25.07C25.7493 11.35 26.3 10.7993 26.3 10.12V7.68996C26.3 7.01065 25.7493 6.45996 25.07 6.45996Z" stroke="white" stroke-width="1.5" stroke-miterlimit="10" stroke-linecap="round"></path><path d="M7.29999 32.5601H15.83" stroke="white" stroke-width="1.5" stroke-miterlimit="10" stroke-linecap="round"></path><path d="M31.7 6.46997H36.59" stroke="white" stroke-width="1.5" stroke-miterlimit="10" stroke-linecap="round"></path><path d="M31.7 11.23H36.59" stroke="white" stroke-width="1.5" stroke-miterlimit="10" stroke-linecap="round"></path><path d="M26.3 14.1499H34.89" stroke="white" stroke-width="1.5" stroke-miterlimit="10" stroke-linecap="round"></path><path d="M23.85 16.75H26.3" stroke="white" stroke-width="1.5" stroke-miterlimit="10" stroke-linecap="round"></path><path d="M23.91 19.1899H28.96" stroke="white" stroke-width="1.5" stroke-miterlimit="10" stroke-linecap="round"></path><path d="M21.41 21.6399H28.92" stroke="white" stroke-width="1.5" stroke-miterlimit="10" stroke-linecap="round"></path><path d="M28.92 11.23V6.45996" stroke="white" stroke-width="1.5" stroke-miterlimit="10" stroke-linecap="round"></path><path d="M28.92 19.19V16.75" stroke="white" stroke-width="1.5" stroke-miterlimit="10" stroke-linecap="round"></path><path d="M23.91 16.7499V14.1499" stroke="white" stroke-width="1.5" stroke-miterlimit="10" stroke-linecap="round"></path><path d="M31.7 11.35V8.75" stroke="white" stroke-width="1.5" stroke-miterlimit="10" stroke-linecap="round"></path><path d="M21.41 16.7499V14.1499" stroke="white" stroke-width="1.5" stroke-miterlimit="10" stroke-linecap="round"></path><path d="M23.91 21.6399V19.1899" stroke="white" stroke-width="1.5" stroke-miterlimit="10" stroke-linecap="round"></path></g><defs><clipPath id="clip0_1484_160"><rect width="39.71" height="36.5" fill="white"></rect></clipPath></defs></svg> 