<?xml version="1.0" encoding="UTF-8"?> <svg xmlns="http://www.w3.org/2000/svg" width="32" height="42" viewBox="0 0 32 42" fill="none"><path d="M21.0955 25.76V23.76C21.1164 23.1145 21.3923 22.5037 21.8628 22.0613C22.3333 21.6189 22.96 21.3811 23.6055 21.4V21.4C24.251 21.3811 24.8777 21.6189 25.3482 22.0613C25.8187 22.5037 26.0946 23.1145 26.1155 23.76V25.76" stroke="white" stroke-width="1.5" stroke-miterlimit="10" stroke-linecap="round"></path><path d="M26.1155 25.77V24.77C26.1364 24.1263 26.411 23.517 26.8793 23.0749C27.3476 22.6328 27.9717 22.3938 28.6155 22.41C29.261 22.3911 29.8877 22.6289 30.3582 23.0713C30.8287 23.5137 31.1046 24.1245 31.1255 24.77V25.77" stroke="white" stroke-width="1.5" stroke-miterlimit="10" stroke-linecap="round"></path><path d="M16.0855 25.77V22.82C16.1064 22.1746 16.3823 21.5637 16.8528 21.1213C17.3233 20.679 17.95 20.4412 18.5955 20.46C19.2393 20.4439 19.8634 20.6829 20.3317 21.125C20.8001 21.567 21.0746 22.1763 21.0955 22.82V25.76" stroke="white" stroke-width="1.5" stroke-miterlimit="10" stroke-linecap="round"></path><path d="M28.8855 40.38L30.7955 33.07C31.0151 32.2242 31.126 31.3539 31.1255 30.48V25.77" stroke="white" stroke-width="1.5" stroke-miterlimit="10" stroke-linecap="round"></path><path d="M11.0755 29.8899L5.07551 26.2899C4.54921 25.8962 3.89416 25.7147 3.24029 25.7813C2.58642 25.848 1.9815 26.158 1.54551 26.6499V26.6499C1.34172 26.8895 1.18949 27.1686 1.09831 27.4696C1.00713 27.7707 0.978954 28.0873 1.01555 28.3998C1.05214 28.7122 1.15271 29.0138 1.31099 29.2856C1.46927 29.5575 1.68186 29.7938 1.93551 29.9799L9.18551 36.7699C9.74995 37.2988 10.1699 37.9631 10.4055 38.6999L11.0655 40.7599" stroke="white" stroke-width="1.5" stroke-miterlimit="10" stroke-linecap="round"></path><path d="M11.0755 29.89V12.3C11.0938 11.6546 11.3672 11.0427 11.8358 10.5985C12.3044 10.1542 12.93 9.91385 13.5755 9.92999C13.896 9.92066 14.2151 9.97458 14.5147 10.0887C14.8143 10.2027 15.0885 10.3747 15.3216 10.5948C15.5547 10.8149 15.7422 11.0788 15.8732 11.3714C16.0043 11.664 16.0764 11.9795 16.0855 12.3V25.77" stroke="white" stroke-width="1.5" stroke-miterlimit="10" stroke-linecap="round"></path><path d="M13.5755 6.54V1" stroke="white" stroke-width="1.5" stroke-miterlimit="10" stroke-linecap="round"></path><path d="M17.3155 7.60994L21.4655 3.68994" stroke="white" stroke-width="1.5" stroke-miterlimit="10" stroke-linecap="round"></path><path d="M9.8155 7.60994L5.6655 3.68994" stroke="white" stroke-width="1.5" stroke-miterlimit="10" stroke-linecap="round"></path></svg> 