<?xml version="1.0" encoding="UTF-8"?> <svg xmlns="http://www.w3.org/2000/svg" width="42" height="37" viewBox="0 0 42 37" fill="none"><path d="M12.6 8C14.533 8 16.1 6.433 16.1 4.5C16.1 2.567 14.533 1 12.6 1C10.667 1 9.10001 2.567 9.10001 4.5C9.10001 6.433 10.667 8 12.6 8Z" stroke="white" stroke-width="1.5" stroke-miterlimit="10" stroke-linecap="round"></path><path d="M4.5 22.0298C6.433 22.0298 8 20.4628 8 18.5298C8 16.5968 6.433 15.0298 4.5 15.0298C2.567 15.0298 1 16.5968 1 18.5298C1 20.4628 2.567 22.0298 4.5 22.0298Z" stroke="white" stroke-width="1.5" stroke-miterlimit="10" stroke-linecap="round"></path><path d="M12.6 36.0601C14.533 36.0601 16.1 34.4931 16.1 32.5601C16.1 30.6271 14.533 29.0601 12.6 29.0601C10.667 29.0601 9.10001 30.6271 9.10001 32.5601C9.10001 34.4931 10.667 36.0601 12.6 36.0601Z" stroke="white" stroke-width="1.5" stroke-miterlimit="10" stroke-linecap="round"></path><path d="M28.54 36.0601C30.473 36.0601 32.04 34.4931 32.04 32.5601C32.04 30.6271 30.473 29.0601 28.54 29.0601C26.607 29.0601 25.04 30.6271 25.04 32.5601C25.04 34.4931 26.607 36.0601 28.54 36.0601Z" stroke="white" stroke-width="1.5" stroke-miterlimit="10" stroke-linecap="round"></path><path d="M36.91 22.0298C38.843 22.0298 40.41 20.4628 40.41 18.5298C40.41 16.5968 38.843 15.0298 36.91 15.0298C34.977 15.0298 33.41 16.5968 33.41 18.5298C33.41 20.4628 34.977 22.0298 36.91 22.0298Z" stroke="white" stroke-width="1.5" stroke-miterlimit="10" stroke-linecap="round"></path><path d="M28.54 8C30.473 8 32.04 6.433 32.04 4.5C32.04 2.567 30.473 1 28.54 1C26.607 1 25.04 2.567 25.04 4.5C25.04 6.433 26.607 8 28.54 8Z" stroke="white" stroke-width="1.5" stroke-miterlimit="10" stroke-linecap="round"></path><path d="M16.1 4.5H25.04" stroke="white" stroke-width="1.5" stroke-miterlimit="10" stroke-linecap="round"></path><path d="M16.1 32.8101H25.04" stroke="white" stroke-width="1.5" stroke-miterlimit="10" stroke-linecap="round"></path><path d="M35.37 15.3699L30.9 7.62988" stroke="white" stroke-width="1.5" stroke-miterlimit="10" stroke-linecap="round"></path><path d="M10.63 7.3999L6.16 15.1399" stroke="white" stroke-width="1.5" stroke-miterlimit="10" stroke-linecap="round"></path><path d="M14.33 7.54004L26.81 29.52" stroke="white" stroke-width="1.5" stroke-miterlimit="10" stroke-linecap="round"></path><path d="M33.43 18.5298H7.97" stroke="white" stroke-width="1.5" stroke-miterlimit="10" stroke-linecap="round"></path><path d="M25.52 30.8L7.51999 20.29" stroke="white" stroke-width="1.5" stroke-miterlimit="10" stroke-linecap="round"></path><path d="M25.52 6.25977L7.51999 16.7598" stroke="white" stroke-width="1.5" stroke-miterlimit="10" stroke-linecap="round"></path></svg> 